<svg width="375" height="812" viewBox="0 0 375 812" fill="none" xmlns="http://www.w3.org/2000/svg">
<g clip-path="url(#clip0_61385_181)">
<rect width="375" height="812" fill="#202024"/>
<circle cx="278" cy="99" r="300" transform="rotate(-180 278 99)" fill="url(#paint0_radial_61385_181)"/>
<circle cx="98" cy="99" r="300" transform="rotate(-180 98 99)" fill="url(#paint1_radial_61385_181)"/>
<mask id="mask0_61385_181" style="mask-type:alpha" maskUnits="userSpaceOnUse" x="0" y="0" width="375" height="813">
<rect width="375" height="813" fill="#202024"/>
</mask>
<g mask="url(#mask0_61385_181)">
<path d="M375 168.308V-311.082L187.478 -419.001L-0.0446777 -311.082V168.308L187.478 276.234L375 168.308Z" fill="url(#paint2_linear_61385_181)"/>
<g style="mix-blend-mode:luminosity" opacity="0.4">
<path d="M1.83663 61.4687V169.005L95.1275 222.779L188.418 169.005V61.4687L95.1275 7.69521L1.83663 61.4687Z" fill="url(#paint3_linear_61385_181)"/>
<path d="M1.83663 -46.0733V61.4633L95.1275 115.237L188.418 61.4633V-46.0733L95.1275 -99.8467L1.83663 -46.0733Z" fill="url(#paint4_linear_61385_181)"/>
<path d="M281.709 -99.8189V7.7177L188.418 61.4912L95.1274 7.7177V-99.8189L188.418 -153.592L281.709 -99.8189Z" fill="url(#paint5_linear_61385_181)"/>
<path d="M188.418 169.005V61.4683L281.709 7.69485L375 61.4683V169.005L281.709 222.778L188.418 169.005Z" fill="url(#paint6_linear_61385_181)"/>
<path d="M375 -46.0733V61.4633L281.709 115.237L188.418 61.4633V-46.0733L281.709 -99.8467L375 -46.0733Z" fill="url(#paint7_linear_61385_181)"/>
<path d="M281.709 222.801V115.265L188.418 61.4912L95.1274 115.265L95.1274 222.801L188.418 276.575L281.709 222.801Z" fill="url(#paint8_linear_61385_181)"/>
</g>
</g>
</g>
<defs>
<radialGradient id="paint0_radial_61385_181" cx="0" cy="0" r="1" gradientUnits="userSpaceOnUse" gradientTransform="translate(278 99) rotate(90) scale(300)">
<stop stop-color="#FFC323"/>
<stop offset="1" stop-color="#121214" stop-opacity="0"/>
</radialGradient>
<radialGradient id="paint1_radial_61385_181" cx="0" cy="0" r="1" gradientUnits="userSpaceOnUse" gradientTransform="translate(98 99) rotate(90) scale(300)">
<stop stop-color="#FF3D6E"/>
<stop offset="1" stop-color="#121214" stop-opacity="0"/>
</radialGradient>
<linearGradient id="paint2_linear_61385_181" x1="-67.9497" y1="59.0111" x2="436.246" y2="232.262" gradientUnits="userSpaceOnUse">
<stop stop-color="#FF008E"/>
<stop offset="1" stop-color="#FFCD1E"/>
</linearGradient>
<linearGradient id="paint3_linear_61385_181" x1="95.1275" y1="217.833" x2="2.06802" y2="59.2196" gradientUnits="userSpaceOnUse">
<stop stop-color="#8257E5"/>
<stop offset="1" stop-color="#FF008E" stop-opacity="0"/>
</linearGradient>
<linearGradient id="paint4_linear_61385_181" x1="95.1275" y1="110.291" x2="2.068" y2="-48.3223" gradientUnits="userSpaceOnUse">
<stop stop-color="#8257E5"/>
<stop offset="1" stop-color="#FF008E" stop-opacity="0"/>
</linearGradient>
<linearGradient id="paint5_linear_61385_181" x1="95.1275" y1="-105.863" x2="281.543" y2="6.49094" gradientUnits="userSpaceOnUse">
<stop stop-color="#FF008E" stop-opacity="0"/>
<stop offset="1" stop-color="#FFCD1E"/>
</linearGradient>
<linearGradient id="paint6_linear_61385_181" x1="375" y1="175.049" x2="188.584" y2="62.6951" gradientUnits="userSpaceOnUse">
<stop stop-color="#FF008E" stop-opacity="0"/>
<stop offset="1" stop-color="#FFCD1E"/>
</linearGradient>
<linearGradient id="paint7_linear_61385_181" x1="281.709" y1="110.291" x2="374.769" y2="-48.3223" gradientUnits="userSpaceOnUse">
<stop stop-color="#8257E5"/>
<stop offset="1" stop-color="#FF008E" stop-opacity="0"/>
</linearGradient>
<linearGradient id="paint8_linear_61385_181" x1="188.418" y1="66.4369" x2="281.478" y2="225.05" gradientUnits="userSpaceOnUse">
<stop stop-color="#8257E5"/>
<stop offset="1" stop-color="#FF008E" stop-opacity="0"/>
</linearGradient>
<clipPath id="clip0_61385_181">
<rect width="375" height="812" fill="white"/>
</clipPath>
</defs>
</svg>
